<?xml version="1.0" encoding="UTF-8"?>
<svg xmlns="http://www.w3.org/2000/svg" width="450" height="450" viewBox="0 0 450 450" fill="none">
  <path d="M378.256 199.003C372.142 225.594 363.262 251.419 352.866 276.849C349.616 284.793 345.874 291.713 338.688 296.834C325.469 306.254 307.822 300.133 294.894 293.318C284.377 287.785 274.586 279.688 263.133 276.171C251.963 272.751 239.76 273.502 228.614 276.615C214.435 280.583 201.579 288.156 188.974 295.761C172.827 305.512 155.503 315.828 137.445 321.32C130.339 323.482 122.847 324.901 115.491 323.853C104.652 322.312 97.627 314.505 90.8845 306.609C84.2629 298.858 77.8592 291.745 73.383 282.276C70.2779 275.744 67.9391 268.88 66.439 261.847C64.8421 254.306 64.4387 246.798 64.5194 239.128C64.5678 234.611 64.5356 230.014 63.3984 225.578C62.3661 221.61 60.6481 217.819 58.6963 214.174C48.7439 195.721 36.8073 176.445 50.9456 156.355C59.5189 144.184 72.8023 138.434 86.8438 134.99C98.99 132.014 111.79 129.796 121.976 122.529C130.912 116.149 134.767 107.149 141.986 99.1319C149.285 91.0264 158.173 84.3726 167.843 79.3641C184.868 70.5408 205.193 66.4517 224.243 65.371C244.252 64.2419 264.609 68.8552 282.022 78.8157C297.773 87.8245 310.161 100.503 327.445 106.713C341.591 111.794 356.415 116.367 368.481 125.683C382.571 136.554 386.442 150.838 383.998 168.194C382.538 178.582 380.603 188.833 378.272 198.979L378.256 199.003Z" fill="black"></path>
  <path d="M294.892 151.895C294.892 151.895 294.174 149.847 292.795 148.467C291.408 147.08 289.303 146.306 289.303 146.306C289.303 146.306 291.021 146.096 292.795 144.322C294.344 142.773 294.892 140.717 294.892 140.717C294.892 140.717 295.271 142.87 296.683 144.282C298.094 145.693 300.489 146.314 300.489 146.314C300.489 146.314 298.562 146.548 296.949 148.161C295.335 149.774 294.892 151.903 294.892 151.903V151.895Z" fill="white"></path>
  <path d="M161.47 119.771C161.47 119.771 161.051 118.569 160.236 117.754C159.422 116.94 158.18 116.48 158.18 116.48C158.18 116.48 159.188 116.359 160.236 115.311C161.148 114.399 161.47 113.189 161.47 113.189C161.47 113.189 161.688 114.456 162.527 115.286C163.357 116.117 164.769 116.48 164.769 116.48C164.769 116.48 163.632 116.617 162.688 117.569C161.736 118.521 161.478 119.771 161.478 119.771H161.47Z" fill="white"></path>
  <path d="M74.1733 211.206C74.1733 211.206 73.7539 210.004 72.9393 209.19C72.1247 208.375 70.8828 207.916 70.8828 207.916C70.8828 207.916 71.8908 207.795 72.9393 206.746C73.8506 205.835 74.1733 204.625 74.1733 204.625C74.1733 204.625 74.3911 205.891 75.2299 206.722C76.0606 207.553 77.472 207.916 77.472 207.916C77.472 207.916 76.3348 208.053 75.3911 209.004C74.4394 209.956 74.1814 211.206 74.1814 211.206H74.1733Z" fill="white"></path>
  <path d="M68.5198 179.648C68.5198 179.648 67.8747 177.801 66.6246 176.551C65.3745 175.301 63.4629 174.591 63.4629 174.591C63.4629 174.591 65.0196 174.406 66.6246 172.793C68.0199 171.397 68.5198 169.534 68.5198 169.534C68.5198 169.534 68.8585 171.478 70.1328 172.752C71.4071 174.026 73.5767 174.591 73.5767 174.591C73.5767 174.591 71.8346 174.801 70.3748 176.261C68.915 177.72 68.5198 179.648 68.5198 179.648Z" fill="white"></path>
  <path d="M323.203 150.186C323.203 150.186 323.163 143.177 321.13 140.177C319.485 137.757 316.283 136.983 316.283 136.983C316.283 136.983 319.251 137.217 320.977 134.942C323.252 131.926 323.711 123.288 323.711 123.288C323.711 123.288 324.3 131.127 325.978 134.233C327.462 136.983 330.123 136.983 330.123 136.983C330.123 136.983 327.446 137.62 325.663 140.177C324.284 142.169 323.203 150.186 323.203 150.186Z" fill="white"></path>
  <path d="M201.787 140.572C201.787 140.572 201.214 138.934 200.109 137.829C199.004 136.724 197.311 136.095 197.311 136.095C197.311 136.095 198.682 135.926 200.109 134.506C201.343 133.273 201.787 131.619 201.787 131.619C201.787 131.619 202.085 133.337 203.214 134.466C204.343 135.595 206.263 136.095 206.263 136.095C206.263 136.095 204.723 136.281 203.432 137.571C202.142 138.862 201.787 140.563 201.787 140.563V140.572Z" fill="white"></path>
  <path d="M194.724 106.85C193.498 106.173 193.393 106.245 193.305 106.342C194.764 107.068 194.756 106.955 194.724 106.85Z" fill="white"></path>
  <path d="M81.8121 223.587C80.5862 222.909 80.4813 222.982 80.3926 223.078C81.8524 223.812 81.8443 223.699 81.8121 223.587Z" fill="white"></path>
  <path d="M208.888 150.75H177.748V159.581H208.888V150.75Z" fill="white"></path>
  <path d="M257.319 150.75H218.598V159.581H257.319V150.75Z" fill="#9F9FFF"></path>
  <path d="M191.724 218.385H151.486V227.216H191.724V218.385Z" fill="#9F9FFF"></path>
  <path d="M152.171 196.027H131.693V204.859H152.171V196.027Z" fill="#3400FE"></path>
  <path d="M243.922 218.385H199.281V227.216H243.922V218.385Z" fill="#9F9FFF"></path>
  <path d="M222.508 176.744H183.117V185.576H222.508V176.744Z" fill="#9F9FFF"></path>
  <path d="M204.15 196.027H164.76V204.859H204.15V196.027Z" fill="#FEAD1F"></path>
  <path d="M169.882 256.25H116.676V265.081H169.882V256.25Z" fill="#9F9FFF"></path>
  <path d="M169.519 150.75H116.312V159.581H169.519V150.75Z" fill="#D033A8"></path>
  <path d="M173.401 176.647H117.041V185.479H173.401V176.647Z" fill="#9F9FFF"></path>
  <path d="M107.933 155.169C107.933 157.661 105.917 159.677 103.425 159.677C100.932 159.677 98.916 157.661 98.916 155.169C98.916 152.676 100.932 150.66 103.425 150.66C105.917 150.66 107.933 152.676 107.933 155.169Z" fill="#9F9FFF"></path>
  <path d="M107.933 181.156C107.933 183.648 105.917 185.664 103.425 185.664C100.932 185.664 98.916 183.648 98.916 181.156C98.916 178.664 100.932 176.647 103.425 176.647C105.917 176.647 107.933 178.664 107.933 181.156Z" fill="#9F9FFF"></path>
  <path d="M107.933 200.447C107.933 202.939 105.917 204.955 103.425 204.955C100.932 204.955 98.916 202.939 98.916 200.447C98.916 197.955 100.932 195.938 103.425 195.938C105.917 195.938 107.933 197.955 107.933 200.447Z" fill="#9F9FFF"></path>
  <path d="M107.933 222.804C107.933 225.296 105.917 227.313 103.425 227.313C100.932 227.313 98.916 225.296 98.916 222.804C98.916 220.312 100.932 218.296 103.425 218.296C105.917 218.296 107.933 220.312 107.933 222.804Z" fill="#9F9FFF"></path>
  <path d="M107.933 260.663C107.933 263.155 105.917 265.171 103.425 265.171C100.932 265.171 98.916 263.155 98.916 260.663C98.916 258.171 100.932 256.154 103.425 256.154C105.917 256.154 107.933 258.171 107.933 260.663Z" fill="#9F9FFF"></path>
  <path d="M103.426 261.735H92.0137V154.5H103.426V155.831H93.3444V260.404H103.426V261.735Z" fill="#9F9FFF"></path>
  <path d="M103.433 180.494H92.4238V181.825H103.433V180.494Z" fill="#9F9FFF"></path>
  <path d="M103.821 199.785H92.8125V201.116H103.821V199.785Z" fill="#9F9FFF"></path>
  <path d="M103.433 222.143H92.4238V223.473H103.433V222.143Z" fill="#9F9FFF"></path>
  <path d="M171.671 282.897C167.477 285.277 162.751 286.922 158.186 288.656C161.211 295.495 164.243 302.351 167.163 309.214C168.074 311.343 169.244 312.876 166.784 314.094C164.743 315.102 162.687 316.078 160.606 317.045C160.211 317.231 159.823 317.408 159.428 317.594C152.395 320.836 145.25 323.925 138.281 327.353C136.838 328.054 135.418 328.78 133.991 329.522C131.474 324.449 129.039 319.328 126.676 314.166C124.756 309.996 122.885 305.827 121.07 301.633C122.748 300.947 124.441 300.262 126.135 299.592C130.361 297.899 134.58 296.237 138.806 294.544C144.242 292.374 149.686 290.18 155.138 288.043C155.597 287.858 156.057 287.68 156.525 287.487C156.501 287.051 157.097 286.841 157.436 287.124C161.953 285.261 166.558 283.204 171.252 282.075C171.744 281.946 172.163 282.623 171.671 282.897Z" fill="#FFC5D0"></path>
  <path d="M304.274 275.001C304.008 276.372 303.379 277.574 302.564 278.679C302.927 282.51 302.185 286.341 300.637 289.825C299.209 293.083 297.088 296.051 294.539 298.439C288.402 304.229 280.062 307.141 271.924 306.843C267.755 306.705 263.658 305.738 259.827 303.971C258.343 303.286 256.915 302.52 255.488 301.705C254.133 300.939 252.802 300.14 251.447 299.382C250.052 298.584 248.624 297.834 247.156 297.172C242.511 295.1 237.494 293.874 232.599 292.728C231.421 292.446 230.236 292.212 229.05 292.059C227.889 291.906 226.727 291.817 225.541 291.849C225.316 291.849 225.098 291.849 224.872 291.865C222.396 291.994 219.952 292.478 217.517 292.97C216.509 293.18 215.492 293.39 214.484 293.599C213.839 293.737 213.194 293.882 212.565 294.019C211.573 294.229 210.581 294.438 209.597 294.664C208.548 294.89 207.306 294.987 206.322 295.479C205.242 296.027 204.911 297.197 204.459 298.293C203.064 301.592 201.201 305.076 198.209 306.98C194.853 309.109 191.006 307.48 187.563 308.923C187.313 309.02 187.063 309.149 186.821 309.286C186.708 309.343 186.595 309.415 186.498 309.48C186.079 309.73 185.683 310.012 185.312 310.335C182.667 312.432 180.812 315.626 178.812 318.36C176.562 321.449 173.65 324.65 169.948 325.578C168.077 326.038 166.27 325.763 164.48 325.046C162.496 324.279 160.649 323.062 158.479 323.029C153.608 322.949 149.906 327.102 146.616 330.385C145.486 331.53 143.93 333.675 142.172 333.458C140.438 333.248 139.849 330.909 139.236 329.49C138.93 328.78 138.623 328.078 138.3 327.36C137.768 326.126 137.236 324.9 136.695 323.667C136.623 323.529 136.566 323.384 136.502 323.231C133.05 315.359 129.582 307.48 126.154 299.592C125.831 298.834 126.235 298.318 126.654 298.092C138.808 291.728 150.963 285.341 162.948 278.598C169.005 275.187 175.021 271.678 180.933 268.009C185.353 265.283 189.716 262.468 194.039 259.564C198.854 256.33 203.58 252.991 208.54 250.039C210.944 248.596 213.395 247.257 215.912 246.071C218.218 244.991 220.678 243.732 223.243 243.837C225.872 243.918 228.429 245.345 230.84 246.37C233.776 247.612 236.704 248.87 239.64 250.088C245.334 252.451 251.036 254.814 256.706 257.25C260.972 259.097 265.255 261.016 269.303 263.379C270.182 263.879 271.037 264.412 271.892 264.96C273.223 265.815 274.594 267.089 276.062 268.033C276.764 267.726 277.449 267.42 278.119 267.081C278.288 267 278.457 266.912 278.619 266.815C281.232 265.46 283.78 264 286.272 262.395C288.676 260.855 291.039 259.209 293.362 257.54C294.297 256.871 295.346 256.096 296.58 256.411C297.765 256.717 298.338 257.806 298.919 258.806C300.387 261.355 301.733 264.024 302.838 266.734C303.903 269.347 304.879 272.178 304.306 275.001H304.274Z" fill="#3400FE"></path>
  <path d="M195.522 288.189C195.497 287.858 195.086 287.544 194.772 287.802C185.956 294.795 178.238 303.408 171.245 312.191C169.608 314.264 167.971 316.74 165.487 317.885C162.478 319.28 160.648 316.442 158.777 314.466C155.897 311.441 151.51 310.78 147.582 311.981C142.453 313.562 138.759 317.53 135.863 321.805C135.936 321.958 136.379 323.136 136.444 323.281C136.557 323.394 136.613 323.531 136.686 323.668C139.928 319.764 143.275 315.264 148.364 313.796C150.84 313.094 153.655 313.086 155.946 314.345C158.002 315.482 159.075 317.659 160.978 318.974C164.672 321.523 168.406 318.329 170.737 315.506C174.358 311.118 177.915 306.699 181.811 302.529C186.23 297.787 190.989 293.399 195.643 288.891C195.868 288.673 195.747 288.35 195.522 288.189Z" fill="#FEAD1F"></path>
  <path d="M220.735 340.846C220.105 340.749 219.476 340.652 218.847 340.564C209.072 339.168 199.241 338.168 189.377 337.588C189.192 335.797 188.998 334.023 188.821 332.232C188.474 328.974 188.151 325.716 187.829 322.473C187.506 319.352 187.183 316.239 186.861 313.102C186.522 313.142 186.441 312.755 186.675 312.698C186.707 311.61 186.603 310.545 186.49 309.48C186.143 305.883 185.804 302.278 185.522 298.681C185.465 298.052 185.425 297.439 185.385 296.81C185.175 294.157 185.006 291.511 184.885 288.85C185.441 291.269 185.764 293.705 186.07 296.132C186.151 296.721 186.224 297.31 186.296 297.907C186.74 301.568 187.159 305.238 187.554 308.916C187.683 310.118 187.821 311.319 187.942 312.521C188.079 312.521 188.224 312.505 188.361 312.505C188.498 312.505 188.643 312.529 188.764 312.545C188.877 312.489 188.998 312.465 189.143 312.465C198.039 312.279 206.959 311.964 215.855 312.182C216.428 312.311 216.637 312.561 216.694 312.924C217.154 315.666 217.646 318.392 218.121 321.118C218.694 324.361 219.243 327.595 219.662 330.869C219.799 331.894 219.928 332.91 220.041 333.934C220.307 336.225 220.533 338.531 220.726 340.846H220.735Z" fill="#FFC5D0"></path>
  <path d="M221.669 367.026C218.814 369.792 215.959 372.567 213.096 375.333C211.862 376.519 210.636 377.753 208.845 377.922C207.208 378.075 205.45 377.737 203.813 377.559C200.611 377.196 197.409 376.745 194.215 376.204C187.626 375.083 181.109 373.591 174.689 371.712C173.399 371.333 171.028 371.059 170.189 369.865C169.366 368.679 170.052 366.663 170.133 365.316C170.286 362.921 170.06 360.509 169.463 358.187C168.705 355.251 167.407 352.509 165.648 350.105C168.294 350.121 170.907 350.444 173.512 351.025C173.746 351.081 173.988 351.138 174.222 351.178C174.948 351.347 175.673 351.517 176.407 351.654C177.722 351.904 179.02 352.089 180.311 352.097C181.021 352.114 181.722 352.057 182.424 351.928C183.868 351.694 185.263 351.146 186.602 350.121C187.15 349.702 187.44 349.436 187.707 349.17C188.731 348.178 189.57 347.016 190.263 345.758C190.223 345.419 190.191 345.089 190.15 344.75C192.288 345.016 194.433 345.298 196.57 345.661C202.111 346.597 207.62 347.758 213.128 348.847C215.87 349.396 218.621 349.936 221.379 350.428C221.645 355.953 221.742 361.493 221.669 367.018V367.026Z" fill="black"></path>
  <path d="M323.945 293.52C323.485 295.068 322.977 296.609 322.437 298.117C321.195 301.617 319.791 305.053 318.17 308.4C318.09 308.585 317.985 308.779 317.888 308.956C317.017 310.747 316.081 312.497 315.089 314.215C312.557 318.651 309.661 322.885 306.459 326.861C298.12 337.249 284.877 347.685 270.932 341.725C264.262 338.886 258.972 333.337 254.391 327.893C249.116 321.667 244.745 314.771 240.139 308.045C236.478 302.69 232.752 297.375 229.034 292.06C227.679 290.132 226.324 288.189 224.961 286.245C222.71 283.011 220.46 279.768 218.234 276.51C219.283 281.373 222.735 285.406 224.767 289.955C225.049 290.568 225.3 291.197 225.525 291.858C226.154 293.576 226.574 295.407 226.558 297.246C226.558 299.794 225.662 301.778 224.291 303.875C223.299 305.4 222.727 306.755 223.888 308.368C224.703 309.497 225.662 310.448 226.38 311.658C227.509 313.586 228.267 315.731 228.614 317.949C229.017 320.425 228.88 323.03 228.179 325.45C227.34 328.289 224.936 331.184 225.799 334.249C225.993 334.918 225.364 335.378 224.767 335.168C223.21 334.636 221.638 334.249 220.041 333.95C219.541 333.854 219.033 333.765 218.533 333.7C217.928 333.62 217.331 333.531 216.726 333.475C213.75 333.152 210.742 333.039 207.774 332.886C201.846 332.563 196.023 332.483 190.111 332.773C189.651 332.789 189.135 332.587 188.813 332.241C188.643 332.087 188.53 331.894 188.474 331.668C187.425 327.418 186.99 322.998 186.401 318.651C186.006 315.884 185.643 313.11 185.296 310.344C185.102 308.9 184.917 307.464 184.74 306.005C184.506 304.085 184.264 302.157 184.03 300.23C183.957 299.617 183.893 299.012 183.82 298.415C182.634 288.318 181.667 278.18 180.909 268.042C180.683 265.259 180.505 262.477 180.32 259.694C180.07 255.807 179.916 251.919 179.82 248.032C179.457 233.684 187.99 216.352 203.249 213.222C213.403 211.142 222.888 216.932 230.872 222.506C239.293 228.393 246.817 235.386 253.415 243.233C258.923 249.782 263.851 256.799 269.271 263.404C270.166 264.509 271.086 265.582 272.029 266.662C273.666 268.55 275.384 270.364 277.159 272.115C278.134 273.066 279.135 273.986 280.151 274.881C280.893 275.526 282.094 276.978 283.03 276.841C284.062 276.688 285.264 275.663 286.248 274.913C286.49 274.72 286.708 274.55 286.918 274.413L290.361 272.066C292.442 270.655 294.531 269.243 296.596 267.816C298.064 266.275 300.467 266.001 302.54 266.695C305.306 267.759 306.823 270.082 308.161 272.348C308.444 272.824 308.718 273.3 308.984 273.744C309.516 274.639 310.105 275.502 310.734 276.333C311.363 277.171 312.049 277.97 312.775 278.728C314.186 280.196 315.767 281.486 317.517 282.575C319.993 284.099 324.284 284.882 324.832 288.253C325.122 290.043 324.445 291.874 323.937 293.552L323.945 293.52Z" fill="#3400FE"></path>
  <path d="M218.42 330.426C218.46 331.491 218.573 332.595 218.533 333.684C217.928 333.604 217.331 333.515 216.726 333.458C216.557 331.918 216.67 330.273 216.629 328.805C216.557 326.611 216.476 324.409 216.404 322.216C216.266 317.828 216.387 313.304 215.758 308.956C214.936 303.109 210.387 296.149 213.661 290.358C214.387 289.068 216.121 287.842 216.291 286.333C216.42 285.148 215.428 284.261 214.613 283.567C212.879 282.059 210.726 280.615 210.459 278.123C210.137 274.978 212.5 272.486 214.557 270.461C215.718 269.316 216.992 268.122 217.573 266.574C218.218 264.88 217.767 263.178 217.057 261.598C216.025 259.331 213.46 256.468 213.686 253.823C213.742 253 214.161 252.282 215.057 252.282C215.702 252.298 216.145 252.629 216.194 253.258C215.105 252.5 215.436 254.67 215.589 255.105C215.742 255.524 215.968 255.944 216.178 256.347C216.557 257.057 216.976 257.758 217.363 258.476C218.105 259.751 218.863 261.065 219.291 262.477C220.113 265.122 219.46 267.598 217.734 269.719C215.887 272.01 212.605 273.986 212.306 277.188C212.04 279.914 215.049 281.269 216.654 282.962C217.928 284.293 218.573 286.027 217.734 287.801C217.178 289.019 216.081 289.898 215.387 291.035C214.565 292.366 214.299 293.891 214.363 295.439C214.516 298.585 215.75 301.593 216.613 304.585C217.476 307.634 217.791 310.682 217.887 313.844C218.016 317.522 218.121 321.199 218.234 324.877C218.291 326.74 218.347 328.587 218.404 330.426H218.42Z" fill="#FEAD1F"></path>
  <path d="M312.492 291.398C308.089 299.374 302.685 306.77 296.402 313.367C293.313 316.618 290.015 320.053 286.264 322.546C282.07 325.328 277.812 324.675 273.973 321.658C270.521 318.948 267.674 315.416 264.746 312.174C261.415 308.488 258.125 304.762 254.875 301.003C248.568 293.712 242.422 286.284 236.437 278.727C229.63 270.138 223.243 261.226 216.46 252.62C216.008 252.048 215.097 252.636 215.508 253.265C221.235 262.048 227.8 270.38 234.292 278.598C240.68 286.68 247.253 294.608 253.995 302.391C257.342 306.254 260.738 310.077 264.166 313.859C267.19 317.19 270.126 320.9 273.828 323.497C277.014 325.731 280.788 326.796 284.514 325.255C288.498 323.61 291.765 320.126 294.773 317.158C302.274 309.754 308.621 301.237 313.662 291.986C314.065 291.244 312.887 290.68 312.476 291.414L312.492 291.398Z" fill="#FEAD1F"></path>
  <path d="M286.295 162.686C284.924 161.242 283.077 160.404 281.319 159.565C280.448 159.145 279.568 158.758 278.689 158.355C279.189 156.605 279.351 154.806 278.786 152.976C277.947 150.282 276.084 148.411 274.189 146.435C271.39 143.523 267.664 138.781 263.196 138.708C261.196 138.289 259.075 138.555 257.163 139.297C254.97 140.152 253.163 141.628 251.929 143.628C251.34 144.572 250.953 145.523 250.759 146.507C250.388 145.612 250.09 144.676 249.929 143.717C249.397 140.668 249.453 137.41 249.759 134.369C249.985 132.022 250.405 130.078 249.276 127.925C246.687 122.989 242.17 127.175 240.299 130.135C237.799 134.103 237.573 139.103 238.412 143.693C238.944 146.515 239.5 149.185 240.896 151.693C241.751 153.201 242.727 154.895 243.928 156.29C246.122 160.105 249.292 162.863 252.703 165.686C254.913 167.501 257.897 170.413 260.43 172.259C261.002 172.679 260.93 171.727 261.599 172.058C261.333 173.05 261.01 174.018 260.664 174.994C259.841 177.244 259.365 180.212 261.696 181.752C262.801 182.478 264.228 182.591 265.487 182.833C267.245 183.172 269.011 183.502 270.769 183.841C272.463 184.164 274.141 184.486 275.818 184.793C277.326 185.075 278.923 185.519 280.472 185.462C283.601 185.333 284.222 182.22 284.891 179.728C285.617 177.074 286.166 174.34 286.529 171.606C288.013 168.695 288.779 165.267 286.303 162.686H286.295Z" fill="#FFC5D0"></path>
  <path d="M285.883 161.581C284.214 159.726 282.069 158.75 279.722 158.056C278.48 157.694 277.205 157.403 275.987 156.943C274.842 156.508 273.931 155.822 272.907 155.177C272.576 154.968 272.294 155.427 272.455 155.701C273.439 157.452 275.85 158.226 277.665 158.766C280.101 159.484 282.52 160.073 284.432 161.863C285.432 162.807 286.262 163.992 286.714 165.299C287.198 166.678 287.061 168.049 286.811 169.469C286.367 171.945 285.432 174.34 285.867 176.897C285.924 177.244 286.464 177.219 286.424 176.865C286.085 173.897 287.851 171.372 288.222 168.517C288.561 165.928 287.617 163.509 285.883 161.589V161.581Z" fill="white"></path>
  <path d="M279.578 151.58C278.812 149.152 277.086 147.329 275.158 145.74C275.021 145.628 274.884 145.507 274.747 145.386C274.094 144.579 273.328 143.894 272.505 143.313C272.416 143.216 272.336 143.127 272.247 143.031C270.997 141.676 269.642 140.442 268.093 139.425C265.512 137.732 262.343 136.651 259.246 137.32C256.375 137.933 254.116 139.958 252.366 142.216C251.826 142.918 251.237 143.7 250.673 144.531C249.414 141.853 249.785 138.821 250.18 135.925C250.527 133.417 251.108 130.392 249.995 127.989C249.156 126.174 247.277 125.295 245.325 125.473C243.099 125.682 241.373 127.191 240.212 129.013C233.961 138.829 239.067 151.773 245.85 159.758C250.334 165.04 255.834 169.113 261.415 173.154C261.553 173.251 261.722 173.065 261.585 172.952C253.665 166.5 244.914 159.621 240.841 149.942C238.801 145.095 237.986 139.595 239.236 134.441C239.857 131.901 240.97 128.973 243.212 127.432C244.253 126.723 245.616 126.424 246.842 126.747C248.592 127.199 249.213 128.86 249.358 130.489C249.818 135.643 247.156 140.877 249.931 145.684C249.035 147.192 248.35 148.813 248.334 150.402C248.334 150.66 248.745 150.749 248.834 150.499C249.769 147.854 251.673 145.313 253.399 143.111C255.036 141.03 257.117 139.119 259.818 138.667C263.028 138.127 266.182 139.595 268.658 141.53C266.747 141.095 264.617 141.119 262.585 141.805C260.407 142.547 258.504 143.95 257.149 145.805C256.431 146.789 255.842 147.854 255.245 148.91C254.713 149.846 253.536 151.241 253.632 152.354C254.439 152.064 254.866 151.08 255.302 150.41C255.939 149.426 256.568 148.434 257.221 147.45C258.48 145.563 260.044 144.015 262.174 143.152C265.182 141.934 268.497 142.313 271.15 143.95C270.287 144.063 269.4 144.385 268.674 144.708C266.505 145.692 264.674 147.321 263.327 149.273C262.48 150.507 261.762 151.846 261.27 153.265C260.802 154.596 260.319 156.016 260.327 157.435C260.327 157.822 260.883 157.895 261.044 157.572C261.69 156.29 262.004 154.862 262.569 153.548C263.117 152.273 263.722 151.031 264.529 149.902C266.061 147.781 268.23 146.023 270.811 145.41C271.666 145.208 272.287 145.257 272.989 145.773C273.537 146.176 274.07 146.628 274.594 147.071C275.65 147.966 276.65 148.934 277.384 150.12C278.86 152.483 279.038 155.507 277.965 158.064C277.626 158.879 278.86 159.484 279.207 158.661C280.143 156.419 280.288 153.919 279.546 151.588L279.578 151.58Z" fill="white"></path>
  <path d="M345.93 231.546C344.543 231.99 343.172 232.409 341.793 232.829C341.486 233.401 341.164 233.974 340.801 234.539C340.075 235.643 338.252 234.821 338.817 233.7C329.179 236.458 319.42 238.636 309.572 240.563C304.031 241.652 298.483 242.789 292.918 243.693C287.949 244.491 282.917 244.87 277.924 244.112C268.762 242.717 260.108 237.877 254.761 230.207C252.269 226.643 250.535 222.554 249.729 218.295C248.761 213.222 249.422 208.222 250.793 203.286C253.422 193.761 256.511 184.276 260.124 175.09C259.858 172.59 260.157 169.565 263.367 169.759C264.867 169.839 266.335 170.428 267.786 170.735C268.222 170.719 268.658 170.702 269.061 170.694C271.351 170.67 273.618 171.001 275.9 171.251C277.118 171.388 278.336 171.557 279.554 171.711C280.465 171.694 281.368 171.727 282.239 172.001C282.997 172.138 283.594 172.211 284.215 172.291C284.997 172.404 285.49 173.259 285.361 173.993C285.264 174.493 285.135 174.985 284.998 175.477C284.982 175.671 284.941 175.872 284.901 176.05C285.135 176.638 285.094 177.34 285.086 177.953C285.086 179.308 285.062 180.655 285.03 181.994C284.989 184.913 285.014 187.841 285.014 190.761C285.014 192.075 284.723 193.825 285.207 195.067C285.683 196.285 287.022 196.568 287.933 197.431C290.829 200.253 288.506 203.608 286.885 206.617C292.2 204.52 297.991 204.1 303.652 203.544C310.419 202.883 317.178 202.133 323.96 201.56C329.719 201.068 334.768 202.189 338.76 206.609C344.422 212.9 345.882 222.247 343.011 230.078C343.753 229.853 344.511 229.675 345.245 229.449C346.583 229.03 347.285 231.087 345.946 231.522L345.93 231.546Z" fill="#FEAD1F"></path>
  <path d="M371.391 264.905C370.456 270.849 369.206 276.768 367.681 282.6C365.221 292.052 362.665 302.545 353.148 307.19C350.865 308.311 348.462 309.15 346.171 310.223C343.582 311.425 341.252 313.038 338.897 314.627C336.574 316.207 334.082 317.788 331.428 318.82C329.347 319.643 327.146 320.119 324.855 319.998C320.306 319.748 317.314 317.425 315.096 314.223C312.273 310.166 310.66 304.739 308.636 300.319C308.41 299.827 308.192 299.343 307.95 298.875C307.781 298.553 307.612 298.246 307.45 297.948C306.055 295.472 304.176 293.415 302.176 291.399C301.659 290.883 301.143 290.35 300.635 289.818C299.079 288.237 297.554 286.632 296.022 285.035L286.263 274.881L283.214 271.704C281.674 270.107 280.029 268.526 278.601 266.808C276.738 264.558 275.27 262.066 274.996 259.001C274.593 254.468 276.117 249.815 278.69 246.121C278.956 245.742 279.222 245.395 279.504 245.04C279.69 244.798 279.884 244.58 280.093 244.354C282.666 241.419 286.005 239.386 289.755 238.12C293.207 236.943 296.748 236.217 300.038 234.821C300.974 234.418 301.885 233.966 302.764 233.426C303.184 233.184 303.353 233.079 303.507 232.966C303.853 232.741 304.208 232.507 304.539 232.241C306.354 230.845 308.192 229.006 310.104 227.176C310.507 226.78 310.676 226.619 310.862 226.434C311.144 226.167 311.297 226.03 311.451 225.885C313.265 224.175 315.169 222.53 317.185 221.288C317.475 221.102 317.79 220.925 318.08 220.772C319.895 219.78 321.814 219.135 323.855 219.078C324.178 219.062 324.5 219.062 324.807 219.078C324.976 219.094 325.129 219.102 325.299 219.118C326.46 218.264 327.589 217.554 328.839 217.021C329.815 216.602 330.839 216.312 331.864 216.102C331.993 216.086 332.114 216.062 332.227 216.046C332.477 216.005 332.727 215.965 332.969 215.933C333.501 215.86 334.017 215.82 334.549 215.804C336.985 215.707 339.445 216.07 341.808 216.667C342.365 216.804 342.929 216.957 343.486 217.126C343.655 217.183 343.832 217.223 344.002 217.28C346.784 218.134 349.567 219.127 352.253 220.288C354.18 221.127 356.067 222.046 357.874 223.054C358.963 223.667 360.011 224.345 361.003 225.071C361.14 225.167 361.269 225.264 361.407 225.393C362.076 225.885 362.737 226.417 363.35 226.99C364.705 228.208 365.939 229.563 366.988 231.063C367.181 231.297 367.35 231.555 367.504 231.805C367.77 232.192 368.02 232.603 368.262 233.007C370.762 237.346 372.077 242.266 372.496 247.234C372.553 247.895 372.593 248.411 372.609 248.911C372.891 254.25 372.262 259.622 371.407 264.897L371.391 264.905Z" fill="#FEAD1F"></path>
  <path d="M403.823 216.44C402.799 219.521 401.54 222.57 399.589 225.264C397.742 227.78 395.338 229.861 392.257 231.127C390.314 231.909 388.507 232.313 386.652 232.522C385.66 232.651 384.652 232.708 383.644 232.716C382.466 232.74 381.474 232.716 380.514 232.659C376.893 232.45 373.312 231.796 369.707 231.361C368.868 231.248 368.03 231.151 367.191 231.079C363.013 230.74 359.11 231.248 355.174 231.417C354.464 231.442 353.746 231.474 353.036 231.474C352.278 231.474 351.528 231.458 350.77 231.417C349.375 231.361 347.988 231.232 346.6 231.038C346.084 230.958 345.608 230.869 345.132 230.788C343.624 230.538 342.14 230.2 340.672 229.796C338.616 229.224 336.39 228.554 334.333 227.659C334.027 227.522 333.728 227.377 333.454 227.24C332.002 226.514 330.938 225.852 330.002 225.07C328.704 223.981 327.736 222.578 327.026 221.086C326.744 220.876 326.478 220.667 326.211 220.457C326.082 220.36 325.961 220.247 325.849 220.134C325.469 219.812 325.123 219.465 324.8 219.086C324.268 218.457 323.824 217.771 323.518 217.045C323.389 216.779 323.292 216.513 323.227 216.231C323.187 216.102 323.155 215.981 323.147 215.852C323.018 215.303 322.961 214.763 322.977 214.214C322.977 214.061 322.993 213.908 322.993 213.771C323.034 213.335 323.106 212.916 323.219 212.496C323.405 211.714 323.695 210.94 324.074 210.19C324.719 208.907 325.582 207.69 326.51 206.585C326.905 206.141 327.042 205.972 327.195 205.818C328.381 204.48 329.696 203.205 331.099 202.012C331.293 201.858 331.494 201.689 331.704 201.536C336.18 197.842 341.463 194.922 346.875 192.471C349.068 191.479 351.238 190.551 353.448 189.672C353.657 189.575 353.883 189.486 354.093 189.422C356.432 188.486 358.779 187.615 361.166 186.817C364.102 185.849 367.07 185.01 370.078 184.357C370.651 184.228 371.207 184.115 371.796 184.01C372.844 183.817 373.925 183.647 374.998 183.51C376.329 183.341 377.667 183.22 379.014 183.163C382.942 182.97 386.902 183.292 390.62 184.365C391.193 184.502 391.741 184.688 392.282 184.897C392.943 185.107 393.596 185.373 394.225 185.655C395.943 186.422 397.572 187.462 398.621 188.93C399.597 190.317 400.089 191.938 400.645 193.487C402.04 197.374 403.734 201.262 404.718 205.262C405.654 209.109 405.097 212.706 403.855 216.448L403.823 216.44Z" fill="#FEAD1F"></path>
  <path d="M388.7 190.907C388.636 190.947 388.563 192.068 388.499 192.108C388.555 191.899 388.604 190.608 388.636 190.398C388.668 190.181 388.684 189.971 388.717 189.753C391.322 185.446 391.257 179.688 389.886 174.881C387.91 167.953 383.845 160.299 378.183 155.758C372.159 150.911 363.666 148.992 356.149 148.338C348.302 147.645 340.237 148.597 332.962 151.742C320.033 157.323 310.186 169.397 309.742 183.906C309.532 191.1 311.734 198.351 316.331 203.908C320.743 209.247 327.558 212.763 334.591 213.707C339.043 214.304 344.858 211.949 349.286 210.207C353.988 208.335 357.9 205.98 362.602 204.093C367.529 202.133 372.433 201.085 377.361 199.101C381.635 197.383 385.708 196.899 388.668 193.237C389.128 192.673 389.321 190.519 388.692 190.915L388.7 190.907Z" fill="#9F9FFF"></path>
  <path d="M392.298 176.687C391.79 170.275 389.435 164.017 385.273 159.339C382.192 155.871 378.305 153.04 374.167 150.967C365.183 146.459 354.561 145.023 344.665 146.628C334.712 148.241 325.437 152.822 318.59 160.29C312.138 167.323 308.097 176.51 307.662 186.075C307.436 190.978 308.371 196.116 310.767 200.431C312.88 204.23 316.767 208.754 321.542 208.311C322.211 208.246 322.469 207.44 321.985 206.988C319.267 204.447 316.372 202.479 314.67 199.036C312.96 195.568 312.146 191.753 312.114 187.898C312.033 179.51 315.396 171.307 320.687 164.88C332.261 150.814 352.778 147.088 369.385 153.717C373.716 155.451 377.74 157.839 381.144 161.049C385.58 165.226 388.039 171.009 388.531 176.937C389.015 182.784 387.854 188.898 385.209 194.14C384.313 195.914 386.902 197.035 387.926 195.447C391.386 190.051 392.83 183.292 392.306 176.695L392.298 176.687Z" fill="white"></path>
  <path d="M381.117 196.609C380.205 197.52 380.584 197.923 380.415 199.141C380.246 200.27 379.713 201.367 378.915 202.174C377.729 203.359 376.1 203.795 374.511 203.585C375.374 205.206 373.124 207.416 371.81 208.384C369.519 210.078 366.132 211.981 363.236 210.884C362.93 213.957 358.913 213.852 356.679 212.675C353.502 211.013 351.558 207.723 350.3 204.497C348.493 199.867 347.751 194.915 346.13 190.245C344.622 185.882 342.186 181.898 341.371 177.325C341.347 177.131 341.428 177.018 341.557 176.946C341.428 175.268 341.791 173.494 343.154 172.373C344.315 171.421 345.856 171.187 347.195 171.76C347.63 169.8 348.912 167.832 351.195 168.098C351.655 168.139 351.953 168.389 352.372 168.485C352.961 168.614 353.114 168.373 353.744 168.042C354.824 167.485 356.01 167.219 357.211 167.09C359.921 166.8 363.656 166.743 366.107 168.139C367.632 169.002 368.583 170.631 368.341 172.308C369.559 172.171 370.664 173.066 371.463 174.058C371.963 174.688 372.342 176.075 372.915 176.462C373.374 176.785 374.157 176.752 374.689 177.107C377.487 178.914 380.407 183.511 378.536 186.745C382.673 188.076 384.424 193.334 381.109 196.617L381.117 196.609Z" fill="black"></path>
  <path d="M372.127 190.147C371.369 194.664 368.199 198.382 365.094 201.56C362.223 204.495 358.747 207.238 354.601 207.947C351.9 208.407 349.109 208.173 346.698 207.012C345.536 207.068 344.375 206.931 343.23 206.721C341.568 206.415 339.899 206.06 338.294 205.576C335.431 204.713 332.575 203.269 331.035 200.584C329.285 197.519 329.761 193.801 330.906 190.623C331.575 188.792 332.446 187.002 333.309 185.252C333.955 183.994 334.527 182.566 335.326 181.364C335.568 179.703 335.439 177.501 337.35 177.138C337.697 177.066 338.011 177.122 338.326 177.275C339.189 177.662 339.657 178.114 340.689 177.904C342.189 177.598 343.286 176.348 344.464 175.501C348.238 172.775 352.98 171.743 357.497 172.775C359.626 172.218 362.207 173.404 363.989 174.38C365.917 175.461 367.643 176.896 368.982 178.646C371.538 181.945 372.797 186.002 372.111 190.139L372.127 190.147Z" fill="#FFC5D0"></path>
  <path d="M358.939 217.626C358.907 219.021 356.898 219.167 355.914 219.401C353.858 219.917 351.801 220.425 349.745 220.852C348.712 221.078 347.672 221.296 346.64 221.522C345.938 221.659 345.099 221.965 344.373 221.901C342.921 221.747 342.663 219.997 342.357 218.876C341.808 216.9 341.308 214.916 340.857 212.916C340.042 209.375 339.405 205.795 338.873 202.206C338.163 202.278 338.074 201.238 338.703 201.028C338.727 200.552 339.405 200.48 339.639 200.875C342.034 200.536 344.422 200.133 346.801 199.641C349.236 199.149 351.656 198.31 354.116 197.947C354.35 197.907 354.535 198.133 354.56 198.35C355.116 203.036 356.1 207.69 357.374 212.255C357.64 213.223 357.923 214.198 358.229 215.166C358.455 215.908 358.939 216.828 358.931 217.618L358.939 217.626Z" fill="#FFC5D0"></path>
  <path d="M341.737 183.575C340.922 184.72 339.946 185.752 338.785 186.543C338.236 186.938 337.64 187.252 337.011 187.51C336.398 187.744 335.623 188.002 334.954 187.946C334.252 187.889 333.905 187.236 333.776 186.607C333.607 185.905 333.72 185.163 334.083 184.534C334.212 184.292 334.486 184.292 334.655 184.421C336.067 183.623 337.567 183.083 339.156 182.704C339.575 182.607 339.995 182.518 340.43 182.454C340.737 182.397 341.075 182.3 341.398 182.341C341.68 182.381 341.946 182.534 342.011 182.816C342.083 183.123 341.898 183.365 341.729 183.583L341.737 183.575Z" fill="white"></path>
  <path d="M348.074 176.728C347.574 176.744 347.082 176.913 346.663 177.171C346.526 177.26 346.405 177.373 346.284 177.478C345.986 177.712 345.881 177.784 345.792 177.889C345.647 178.066 345.51 178.252 345.494 178.486C345.469 178.825 345.744 179.075 346.082 179.067C346.276 179.067 346.478 179.002 346.655 178.946C347.018 178.833 347.365 178.639 347.655 178.405C348.01 178.115 348.292 177.768 348.494 177.357C348.647 177.05 348.397 176.72 348.074 176.728Z" fill="black"></path>
  <path d="M350.552 176.47C350.132 176.147 349.633 175.953 349.108 175.897C348.592 175.841 348.068 175.881 347.584 176.05C347.326 176.139 347.108 176.244 346.907 176.429C346.737 176.591 346.592 176.768 346.463 176.97C346.906 176.849 347.326 176.736 347.713 176.631C348.084 176.534 348.479 176.51 348.858 176.574C349.245 176.639 349.6 176.784 349.931 176.994C350.197 177.163 350.568 177.478 350.487 177.833C350.455 177.962 350.512 178.107 350.608 178.188C351.052 178.268 351.181 178.139 351.221 177.978C351.366 177.397 350.988 176.816 350.544 176.478L350.552 176.47Z" fill="black"></path>
  <path d="M354.075 177.534C353.994 177.84 353.518 177.937 353.421 177.574C353.187 176.76 352.655 176.026 351.978 175.518C351.179 174.921 350.332 175.018 349.494 174.638C349.365 174.582 349.268 174.405 349.308 174.259C349.647 173.574 350.066 173.267 350.582 173.171C351.227 173.042 351.841 173.227 352.341 173.614C352.897 174.05 353.308 174.695 353.639 175.308C354.002 175.977 354.3 176.76 354.075 177.534Z" fill="black"></path>
  <path d="M375.175 190.382C374.925 192.971 374.183 195.544 372.739 197.737C371.691 199.334 369.997 201.278 368.037 201.721C367.957 202.254 367.828 202.77 367.618 203.23C366.537 205.593 364.053 206.698 362.23 208.375C361.319 209.214 360.859 210.4 359.948 211.214C359.028 212.029 357.77 211.884 356.706 211.424C355.681 210.98 354.722 210.125 354.439 209.004C354.246 208.238 354.423 207.367 354.996 206.875C354.504 206.093 354.31 205.165 354.633 204.246C354.98 203.197 355.851 202.455 356.746 201.867C356.875 200.665 357.052 199.52 357.093 198.536C357.133 197.278 357.173 196.019 357.222 194.745C355.98 194.858 354.875 194.535 354.133 193.197C353.157 191.446 353.754 189.503 354.818 187.995C353.488 186.486 356.262 184.446 357.899 183.559C355.536 182.107 355.617 178.8 357.843 177.332C355.004 176.098 354.472 172.05 357.48 170.308C357.859 170.098 358.206 170.477 358.093 170.783C359.391 170.114 361.311 170.34 362.65 170.67C365.642 171.429 367.715 173.55 369.884 175.606C371.86 177.477 374.022 179.155 374.667 181.946C375.296 184.647 375.425 187.599 375.167 190.366L375.175 190.382Z" fill="black"></path>
  <path d="M365.27 192.761C365.27 196.261 362.439 199.092 358.939 199.092C355.438 199.092 352.607 196.261 352.607 192.761C352.607 189.261 355.438 186.43 358.939 186.43C362.439 186.43 365.27 189.261 365.27 192.761Z" fill="#FFC5D0"></path>
  <path d="M388.186 222.844C378.87 229.514 367.345 233.53 355.82 232.216C352.747 231.869 349.683 231.24 346.658 230.554C344.505 230.079 342.319 229.474 340.464 228.272C335.665 225.167 336.649 219.618 334.181 215.142C334.052 214.916 334.012 214.682 334.052 214.48C334.149 214.351 334.246 214.23 334.343 214.118C334.552 213.851 334.786 213.585 335.028 213.351C337.318 214.61 341.682 212.972 343.779 212.222C346.844 211.133 349.876 209.988 352.884 208.754C358.998 206.262 365.014 203.52 371.152 201.092C376.483 198.979 381.895 197.076 387.476 195.761C390.178 195.132 392.904 194.632 395.646 194.309C396.638 194.197 397.727 193.93 398.582 194.576C399.291 195.108 399.646 196.237 399.913 197.035C403.437 207.359 396.162 217.134 388.178 222.852L388.186 222.844Z" fill="#FEAD1F"></path>
  <path d="M358.899 191.511C359.423 191.342 359.964 191.229 360.431 190.922C360.698 190.753 360.641 190.237 360.286 190.212C359.972 190.188 359.722 190.204 359.407 190.285C359.157 190.35 358.915 190.422 358.665 190.495C358.141 190.648 357.617 190.817 357.101 191.011C356.068 191.382 355.052 191.817 354.068 192.301C353.592 192.535 353.544 193.092 354.003 193.382C355.552 194.366 357.286 195.068 359.052 195.519C359.77 195.705 359.98 194.584 359.27 194.39C357.947 194.043 356.697 193.519 355.504 192.882C356.141 192.576 356.786 192.285 357.439 192.035C357.915 191.85 358.399 191.672 358.891 191.519L358.899 191.511Z" fill="#D033A8"></path>
  <path d="M386.771 244.709C386.796 246.653 386.675 248.597 386.376 250.524C386.32 251.097 386.223 251.653 386.126 252.218C385.175 257.605 383.311 262.872 381.424 267.897C378.545 275.55 375.037 282.962 371.343 290.245C367.899 297.028 364.6 304.15 360.164 310.36C356.277 315.812 350.623 320.538 343.727 321.24C340.074 321.619 336.541 320.57 333.114 319.425C332.541 319.232 331.984 319.03 331.42 318.82C328.484 317.74 325.629 316.425 323.113 314.554C321.032 312.997 319.298 311.086 317.879 308.957C315.443 305.303 313.935 301.012 313.055 296.73C312.862 295.818 312.693 294.899 312.539 293.971C312.41 293.27 312.306 292.576 312.201 291.874C311.539 287.439 311.176 282.906 310.87 278.422C310.829 277.712 310.773 276.994 310.733 276.292C310.636 274.825 310.539 273.373 310.426 271.929C310.2 268.864 309.95 265.792 309.725 262.711C309.934 262.791 310.16 262.88 310.378 262.945C310.668 263.025 310.983 263.098 311.257 263.154C311.596 263.227 311.918 263.267 312.209 263.324C313.919 263.614 315.661 263.574 317.37 263.324C321.024 262.791 324.5 261.42 327.807 259.799C331.944 257.783 335.985 254.992 338.461 251.169C339.38 254.508 340.364 257.839 341.413 261.17C341.752 262.235 342.115 263.267 342.461 264.332C342.558 264.316 342.598 264.179 342.655 264.025C342.84 263.469 343.018 262.92 343.203 262.364C343.695 260.864 344.171 259.356 344.631 257.847C346.155 252.799 347.599 247.709 349.486 242.757C350.897 239.047 352.591 235.426 354.72 232.071C354.857 231.845 355.003 231.627 355.156 231.418C355.688 230.603 356.237 229.821 356.817 229.055C357.22 228.522 357.696 227.95 358.245 227.393C358.89 226.724 359.632 226.054 360.414 225.474C360.6 225.337 360.793 225.207 360.971 225.078C362.439 224.111 364.036 223.53 365.568 223.796C369.439 223.49 373.851 224.82 376.787 226.369C377.698 226.845 378.537 227.393 379.303 228.022C379.763 228.385 380.214 228.78 380.634 229.184C381.666 230.192 382.561 231.321 383.303 232.539C385.594 236.257 386.675 240.523 386.755 244.709H386.771Z" fill="#FEAD1F"></path>
  <path d="M338.478 251.186C336.002 255.001 331.961 257.799 327.824 259.816C324.525 261.437 321.041 262.808 317.387 263.34C315.678 263.59 313.936 263.63 312.226 263.34C311.484 263.211 310.532 263.058 309.733 262.727C309.709 262.38 310.621 262.179 310.597 261.816C310.33 258.307 309.161 254.63 308.992 251.105C308.016 249.508 307.411 247.653 307.338 245.556C307.258 243.105 307.015 241.242 306.653 238.798C306.411 237.273 306.435 235.951 305.725 234.789C304.443 234.313 302.499 232.741 301.152 232.475C298.942 232.055 296.95 232.676 295.24 231.007C293.772 229.579 293.53 227.466 294.708 225.772C295.982 223.958 298.208 223.313 300.345 223.522C302.894 223.772 305.467 224.764 307.814 225.772C309.266 226.385 310.669 227.071 311.984 227.91C312.266 227.99 312.54 228.103 312.823 228.216C312.322 227.611 311.798 227.039 311.226 226.523C309.258 224.764 306.798 223.143 304.628 221.691C302.765 220.457 301.071 219.457 300.652 217.199C300.273 215.223 300.934 213.142 302.733 212.11C303.491 211.691 304.289 211.457 305.096 211.368C305.435 209.384 307.386 208.069 309.435 207.868C312.008 207.634 314.444 208.997 316.46 210.36C318.694 211.86 320.331 213.481 322.307 215.272C322.88 215.788 323.468 217.199 324.017 217.756C324.315 216.562 323.694 215.078 323.21 214.183C322.178 212.296 320.565 210.311 320.928 207.989C321.234 205.948 323.114 205.359 324.928 205.859C327.162 206.464 329.001 207.86 330.001 209.94C331.203 212.441 332.139 215.336 332.631 218.062C333.163 221.038 333.203 224.135 333.429 227.127C333.526 228.345 333.639 229.587 333.736 230.845C334.179 232.789 334.502 234.749 334.703 236.749C336.187 240.62 336.784 245 337.881 249C337.954 249.25 338.018 249.492 338.091 249.742C338.22 250.218 338.341 250.71 338.486 251.186H338.478Z" fill="#FFC5D0"></path>
  <path d="M321.3 228.425C319.703 225.167 317.888 222.005 315.582 219.222C313.557 216.779 311.049 214.52 308.154 213.165C306.549 212.407 304.669 211.988 302.968 212.69C301.25 213.391 300.298 215.037 300.782 216.875C301.645 220.15 305.395 221.352 307.944 223.013C309.509 224.045 311.219 225.417 312.364 227.07C312.686 227.53 312.936 227.981 313.162 228.465C313.299 228.804 313.428 229.151 313.525 229.514C313.146 229.151 312.856 228.772 312.549 228.393C311.944 227.61 311.315 226.884 310.622 226.207C310.146 225.731 309.63 225.287 309.057 224.852C307.323 223.553 305.347 222.682 303.516 221.537C301.04 219.956 298.411 216.779 300.218 213.746C301.919 210.835 305.71 210.964 308.428 212.182C315.025 215.133 319.227 221.844 322.26 228.094C322.55 228.683 321.59 228.989 321.308 228.417L321.3 228.425Z" fill="white"></path>
  <path d="M328.469 226.103C326.299 220.127 323.073 214.344 317.782 210.602C315.451 208.948 312.435 207.295 309.475 207.521C307.16 207.698 304.7 209.489 305.144 212.045C305.201 212.36 305.628 212.336 305.636 212.013C305.668 210.618 306.604 209.36 307.87 208.795C309.33 208.15 311.023 208.456 312.467 208.981C314.911 209.86 317.121 211.319 319.032 213.062C322.968 216.675 325.484 221.53 327.283 226.498C327.557 227.248 328.735 226.853 328.46 226.103H328.469Z" fill="white"></path>
  <path d="M338.503 250.516C336.769 243.765 335.478 236.918 334.583 230.006C333.801 224.005 333.986 217.521 331.712 211.835C330.349 208.44 326.332 203.044 321.961 205.213C320.114 206.125 320.146 208.375 320.848 210.036C321.372 211.278 322.179 212.391 322.727 213.633C323.397 215.134 323.913 216.698 324.453 218.247C324.502 218.392 324.711 218.344 324.711 218.198C324.647 216.037 324.01 214.029 323.026 212.109C322.413 210.916 321.477 209.722 321.348 208.351C321.138 206.117 323.332 205.52 325.09 206.02C330.438 207.52 331.817 214.819 332.365 219.465C332.978 224.691 333.301 229.917 334.148 235.119C335.011 240.418 336.164 245.652 337.575 250.83C337.745 251.443 338.664 251.129 338.511 250.516H338.503Z" fill="white"></path>
  <path d="M311.668 262.485C311.797 263.404 310.353 263.493 310.224 262.566C309.845 259.896 309.539 257.194 309.103 254.541C308.7 252.097 307.345 250.065 306.797 247.677C305.829 243.467 306.877 239.031 305.595 234.926C305.514 234.644 305.41 234.37 305.305 234.104C305.627 234.329 305.934 234.579 306.224 234.862C306.297 235.015 306.353 235.152 306.393 235.305C307.764 239.209 307.023 243.483 308.128 247.484C308.74 249.734 310.047 251.637 310.466 253.976C310.966 256.791 311.265 259.654 311.668 262.493V262.485Z" fill="white"></path>
  <path d="M313.161 228.465C313.032 228.546 312.87 228.562 312.701 228.465C309.612 226.788 306.475 225.61 303.216 224.925C301.595 224.586 299.926 224.336 298.281 224.296C296.643 224.255 295.272 224.618 294.603 226.255C294.054 227.594 293.635 229.602 294.829 230.732C295.837 231.683 297.538 231.595 298.829 231.699C301.232 231.885 303.426 232.675 305.305 234.095C305.628 234.321 305.934 234.571 306.225 234.853C305.942 235.176 305.765 235.046 305.596 234.926C304.353 234.054 302.95 233.417 301.466 233.054C299.966 232.691 298.49 232.788 296.974 232.659C294.578 232.466 292.845 230.949 292.974 228.433C293.086 226.167 294.151 223.771 296.538 223.312C297.813 223.078 299.143 223.231 300.41 223.384C301.918 223.554 303.418 223.828 304.886 224.207C306.862 224.707 308.773 225.384 310.604 226.223C311.193 226.489 311.782 226.772 312.354 227.078C312.677 227.538 312.927 227.989 313.153 228.473L313.161 228.465Z" fill="white"></path>
  <path d="M353.438 250.476C352.809 251.065 352.374 251.912 351.906 252.638C351.39 253.452 350.906 254.283 350.446 255.13C349.519 256.815 348.656 258.541 347.857 260.3C346.301 263.735 344.962 267.268 344.131 270.946C344.066 271.244 344.55 271.422 344.655 271.123C345.905 267.615 347.163 264.106 348.744 260.727C349.51 259.09 350.333 257.485 351.22 255.904C351.688 255.065 352.188 254.235 352.672 253.404C353.14 252.597 353.777 251.783 354.091 250.904C354.245 250.476 353.769 250.162 353.438 250.476Z" fill="#D033A8"></path>
  <path d="M351.867 276.559C351.359 275.486 350.625 274.494 349.657 273.793C349.181 273.446 348.665 273.18 348.108 272.994C347.512 272.792 346.584 272.849 346.181 272.301C345.85 271.849 345.963 270.978 345.907 270.446C345.85 269.937 345.761 269.462 345.536 269.002C345.132 268.179 344.471 267.494 343.777 266.905C342.334 265.679 340.116 264.671 339.769 262.606C339.729 262.372 339.35 262.3 339.317 262.574C339.1 264.397 340.382 265.606 341.632 266.727C342.366 267.381 343.189 268.026 343.721 268.865C344.342 269.857 344.197 270.946 344.374 272.042C344.552 273.163 345.181 273.97 346.278 274.301C347.681 274.728 348.746 274.994 349.673 276.244C350.52 277.39 350.875 278.769 350.971 280.172C351.076 281.761 350.746 283.406 351.076 284.971C351.173 285.439 351.859 285.406 352.044 285.035C353.238 282.6 353.02 278.97 351.875 276.559H351.867Z" fill="#3400FE"></path>
  <path d="M343.138 262.855C342.775 264.436 341.428 265.614 340.283 266.662C337.654 269.041 334.645 270.888 331.476 272.437C328.024 274.155 324.403 275.526 320.773 276.857C317.555 278.034 313.345 279.566 309.966 278.115C308.151 277.332 308.103 275.598 308.159 273.848C308.216 271.921 308.143 270.001 308.103 268.074C308.03 265.106 307.603 261.75 308.353 258.799C308.2 258.307 308.369 257.734 308.788 257.468C308.869 257.282 308.925 257.105 309.014 256.935C309.304 256.331 310.176 256.766 309.926 257.371C314.555 258.339 319.201 255.871 323.322 254C325.629 252.951 327.935 251.871 330.177 250.653C331.774 249.798 333.379 248.806 334.484 247.338C335.25 246.289 335.404 244.289 336.823 243.83C337.815 243.507 338.654 244.176 339.049 245.047C339.944 247.007 340.251 249.483 340.799 251.564C341.332 253.637 341.864 255.685 342.396 257.758C342.815 259.355 343.525 261.17 343.154 262.847L343.138 262.855Z" fill="#9F9FFF"></path>
  <path d="M386.378 250.524C386.321 251.096 386.224 251.653 386.128 252.217C385.708 252.048 385.289 251.879 384.853 251.725C381.619 250.507 378.248 249.701 374.852 249.177C374.094 249.064 373.344 248.967 372.586 248.911C369.804 248.604 367.021 248.572 364.239 248.773C360.827 249.015 357.537 249.822 354.173 250.241C353.948 250.274 353.826 249.919 354.036 249.822C359.448 247.12 366.384 246.83 372.497 247.386C373.296 247.459 374.094 247.556 374.861 247.652C378.562 248.128 382.619 249.023 386.386 250.524H386.378Z" fill="#9F9FFF"></path>
  <path d="M386.645 232.522C385.653 232.651 384.645 232.708 383.636 232.716C383.54 232.643 383.427 232.587 383.314 232.53C383.007 232.337 382.701 232.167 382.395 231.982C380.475 230.917 378.483 230.006 376.41 229.272C374.491 228.57 372.523 228.03 370.506 227.635C368.127 227.175 365.724 226.965 363.328 226.989C361.619 227.005 359.933 227.126 358.255 227.376C354.481 227.925 350.787 229.03 347.319 230.675C347.085 230.788 346.827 230.901 346.593 231.022C346.077 231.272 345.625 231.514 345.182 231.764C344.932 231.893 344.69 232.03 344.456 232.167C344.286 232.264 344.117 232.224 344.012 232.143C343.843 231.99 343.803 231.707 344.036 231.538C344.399 231.272 344.746 231.022 345.125 230.772C345.351 230.619 345.569 230.482 345.795 230.336C346.02 230.183 346.246 230.046 346.48 229.917C350.731 227.36 355.513 225.901 360.425 225.457C360.748 225.433 361.07 225.4 361.393 225.384C364.441 225.191 367.53 225.368 370.555 225.917C373.337 226.417 376.047 227.231 378.668 228.312C379.338 228.578 379.999 228.869 380.652 229.167C381.677 229.643 382.669 230.159 383.645 230.707C384.637 231.28 385.661 231.869 386.653 232.514L386.645 232.522Z" fill="#9F9FFF"></path>
  <path d="M388.917 190.971C388.716 190.745 388.28 190.922 388.248 191.205C387.998 193.407 386.611 194.407 384.651 195.262C382.32 196.278 379.909 197.149 377.546 198.092L363.665 203.617C359.036 205.456 354.39 207.263 349.793 209.166C347.462 210.134 345.124 211.102 342.793 212.077C341.825 212.481 340.849 212.908 339.833 213.174C338.22 213.602 336.857 213.457 335.235 213.303C335.082 213.287 334.913 213.505 335.082 213.618C336.728 214.707 338.937 214.424 340.768 213.989C343.583 213.328 346.277 212.102 348.971 211.077C354.705 208.892 360.391 206.577 366.101 204.311C371.698 202.085 377.296 199.851 382.893 197.625C384.796 196.867 391.797 194.197 388.934 190.979L388.917 190.971Z" fill="white"></path>
  <path d="M221.379 350.436C218.621 349.944 215.871 349.404 213.129 348.855C207.62 347.766 202.112 346.605 196.571 345.669C194.434 345.307 192.288 345.024 190.151 344.758C189.957 342.871 189.732 340.967 189.538 339.08C189.482 338.58 189.425 338.088 189.385 337.58C199.249 338.169 209.08 339.161 218.855 340.556C219.484 340.637 220.113 340.742 220.742 340.838C220.984 343.443 221.162 346.04 221.299 348.646C221.323 349.25 221.355 349.831 221.379 350.436Z" fill="white"></path>
  <path d="M133.994 329.531C133.042 330.023 132.122 330.523 131.179 331.031C129.808 331.773 128.469 332.539 127.122 333.338C126.146 330.934 125.178 328.539 124.202 326.136C121.823 320.272 119.404 314.417 117.016 308.553C116.403 307.053 115.799 305.561 115.186 304.061C117.145 303.239 119.105 302.424 121.073 301.642C122.888 305.836 124.767 310.005 126.678 314.175C129.042 319.337 131.477 324.458 133.994 329.531Z" fill="white"></path>
  <path d="M127.13 333.329C123.533 335.426 119.984 337.652 116.306 339.564C112.136 338.499 107.902 337.733 103.62 337.314C102.91 337.241 102.136 337.273 101.442 337.12C100.41 336.894 99.9742 336.265 99.4661 335.33C98.7241 333.918 98.1514 332.362 97.5062 330.91C96.2077 327.942 94.9012 324.998 93.6027 322.046C92.2881 319.094 90.9895 316.143 89.683 313.191C89.0216 311.723 88.3845 310.239 87.7232 308.771C87.4409 308.142 87.1666 307.513 86.8844 306.868C86.4892 305.972 86.1183 305.553 86.578 304.714C87.7636 302.52 89.1345 300.52 90.0781 298.181C91.0137 295.875 91.675 293.479 92.0783 291.036C92.2154 290.221 92.3123 289.398 92.3849 288.592C94.0624 289.987 95.6593 291.528 97.1675 293.149C97.6998 293.705 98.1918 294.254 98.6515 294.786C99.2806 295.496 99.8936 296.213 100.482 296.939C101.184 297.778 101.87 298.617 102.539 299.472C102.918 299.964 103.281 300.44 103.66 300.915C104.483 301.617 105.015 302.101 105.531 302.625C105.797 302.859 106.031 303.117 106.289 303.383C107.144 303.666 107.854 303.706 108.499 303.835C109.225 303.972 109.717 304.085 110.209 304.198C111.144 304.408 112.112 304.642 113.088 304.956C113.79 304.666 114.484 304.367 115.185 304.077C115.798 305.577 116.403 307.069 117.016 308.569C119.411 314.433 121.831 320.288 124.202 326.151C125.178 328.555 126.146 330.95 127.122 333.354L127.13 333.329Z" fill="black"></path>
  <path d="M177.6 359.75C176.705 356.782 175.576 353.935 174.213 351.177C174.939 351.346 175.665 351.515 176.399 351.653C177.681 354.032 178.721 356.532 179.504 359.105C179.867 360.339 177.979 360.976 177.6 359.75Z" fill="white"></path>
  <path d="M187.392 360.873C187.263 361.292 186.916 361.478 186.529 361.559C185.658 361.728 185.239 360.897 184.989 360.244C184.755 359.615 184.488 359.002 184.206 358.397C183.65 357.211 182.988 356.058 182.279 354.953C181.65 353.977 181.004 353.009 180.303 352.098C181.012 352.114 181.714 352.058 182.416 351.929C182.795 352.372 183.174 352.824 183.505 353.284C184.263 354.348 184.948 355.469 185.545 356.615C185.868 357.187 186.158 357.776 186.424 358.373C186.577 358.679 186.706 358.986 186.843 359.3C186.9 359.437 186.956 359.607 187.029 359.76C187.432 360.026 187.505 360.518 187.392 360.865V360.873Z" fill="white"></path>
  <path d="M194.143 358.623C192.578 356.26 190.9 354.018 188.844 352.066C188.134 351.396 187.376 350.735 186.594 350.138C187.142 349.719 187.432 349.453 187.699 349.187C188.424 349.743 189.142 350.332 189.812 350.945C191.965 352.929 193.965 355.211 195.417 357.768C195.909 358.607 194.691 359.462 194.143 358.623Z" fill="white"></path>
  <path d="M100.483 296.94C100.371 297.722 100.193 298.496 99.9671 299.206C99.5478 300.496 98.9994 301.706 98.2574 302.859C97.8945 303.416 97.5155 303.981 97.0799 304.497C96.6444 305.013 96.1443 305.674 95.5394 305.997C94.3538 306.642 93.2731 305.352 94.0151 304.263C94.3619 303.763 94.9103 303.343 95.3297 302.868C95.6926 302.432 96.0394 301.988 96.362 301.496C96.9669 300.561 97.467 299.512 97.8299 298.448C98.209 297.303 98.459 296.141 98.6284 294.939C99.2736 295.512 99.8866 296.23 100.475 296.956L100.483 296.94Z" fill="white"></path>
  <path d="M105.53 302.626C105.514 303.086 105.473 303.562 105.417 304.022C105.264 305.489 105.014 306.933 104.602 308.328C104.417 308.957 104.24 309.57 103.998 310.191C103.715 310.933 103.199 311.272 102.627 311.796C102.473 311.95 102.151 311.893 102.135 311.627C102.135 310.982 101.949 310.369 102.151 309.74C102.36 309.095 102.586 308.482 102.764 307.836C103.126 306.562 103.425 305.264 103.627 303.965C103.764 303.03 103.861 302.094 103.909 301.15C104.465 301.61 104.998 302.102 105.514 302.618L105.53 302.626Z" fill="white"></path>
  <path d="M111.401 317.546C111.32 318.595 109.699 318.272 109.796 317.224C110.046 314.369 109.965 311.489 109.643 308.65C109.457 307.045 109.143 305.465 108.764 303.884C109.223 303.964 109.715 304.077 110.207 304.19C111.465 308.497 111.772 313.127 111.409 317.546H111.401Z" fill="white"></path>
  <path d="M116.299 339.573C111.855 341.879 107.233 343.751 102.104 344.493C97.6117 345.146 97.4422 342.42 95.3372 338.452C92.1515 332.427 89.1432 326.314 86.3284 320.103C85.5865 318.482 84.8768 316.845 84.159 315.208C79.5699 304.61 75.5454 293.754 72.0854 282.729C71.9321 282.237 72.2788 281.753 72.787 281.705C76.9244 281.269 80.6909 281.971 84.159 283.439C87.127 284.673 89.8529 286.472 92.3854 288.585C92.3128 289.399 92.2159 290.222 92.0788 291.028C91.6756 293.472 91.0143 295.867 90.0787 298.174C89.1431 300.513 87.7722 302.513 86.5785 304.707C86.1188 305.546 86.4978 305.965 86.8849 306.86C87.1672 307.506 87.4414 308.135 87.7237 308.764C88.377 310.232 89.0222 311.716 89.6835 313.183C90.982 316.135 92.2886 319.087 93.6033 322.039C94.9018 324.991 96.2082 327.943 97.5067 330.903C98.1519 332.354 98.7247 333.911 99.4667 335.322C99.9667 336.258 100.402 336.887 101.443 337.113C102.144 337.266 102.91 337.242 103.62 337.306C107.903 337.726 112.137 338.492 116.307 339.557L116.299 339.573Z" fill="#9F9FFF"></path>
  <path d="M221.669 367.026C221.597 372.744 221.331 378.463 220.855 384.189C220.815 384.689 220.282 384.891 219.863 384.858C208.628 384.1 197.345 382.898 186.312 380.689C177.504 378.914 168.746 376.341 160.745 372.172C155.906 369.655 142.872 362.784 148.437 355.614C150.8 352.549 155.656 351.38 159.22 350.694C161.358 350.291 163.503 350.089 165.641 350.105C167.399 352.509 168.705 355.251 169.455 358.187C170.06 360.51 170.278 362.929 170.125 365.316C170.044 366.655 169.358 368.671 170.181 369.865C171.02 371.051 173.399 371.333 174.682 371.712C181.101 373.583 187.618 375.083 194.207 376.204C197.393 376.753 200.595 377.196 203.805 377.559C205.442 377.745 207.2 378.076 208.838 377.922C210.628 377.753 211.862 376.527 213.088 375.333C215.951 372.567 218.806 369.793 221.661 367.026H221.669Z" fill="#9F9FFF"></path>
  <path d="M287.545 175.502C287.336 177.373 287.102 179.268 286.892 181.139C286.602 183.583 286.916 187.962 284.319 188.422C283.077 188.648 281.73 188.1 280.512 187.962C279.004 187.777 277.464 187.729 275.956 187.737C272.923 187.753 269.899 188.14 266.882 188.422C264.011 188.672 260.857 189.011 258.019 188.342C257.107 188.132 256.204 187.543 256.002 186.325C255.809 185.027 256.615 183.64 256.978 182.494C258.14 178.873 258.365 175.107 258.14 171.251C258.115 170.848 258.365 170.566 258.64 170.493C258.72 170.058 259.003 169.727 259.462 169.711C266.398 169.574 273.447 169.042 280.383 169.525C281.851 169.638 283.335 169.848 284.763 170.348C285.626 170.638 286.739 170.953 287.295 171.913C287.908 172.961 287.674 174.316 287.545 175.494V175.502Z" fill="#9F9FFF"></path>
  <path d="M297.683 186.431C297.466 186.358 297.248 186.302 297.014 186.245L254.543 176.503C250.865 175.656 246.743 177.527 245.332 180.68L234.259 205.505C233.081 208.142 234.186 210.828 236.718 212.135C236.888 214.352 238.59 216.256 241.283 216.877L282.819 225.902C286.497 226.749 290.723 225.128 292.223 221.756L302.547 195.924C304.45 191.601 301.361 187.286 297.683 186.439V186.431Z" fill="black"></path>
  <path d="M307.114 244.523L293.709 226.198C292.008 223.868 287.644 221.303 283.967 220.456L241.495 210.713C237.818 209.866 234.624 213.536 236.326 215.867C236.438 216.077 236.559 216.278 236.721 216.504L250.125 234.828C251.827 237.159 256.19 239.724 259.868 240.571L302.339 250.313C302.807 250.418 303.234 250.491 303.63 250.539C304.493 250.741 305.235 250.628 305.848 250.338C307.84 249.346 308.404 246.305 307.114 244.531V244.523Z" fill="black"></path>
  <path d="M269.101 201.48C268.117 203.706 265.6 205.037 263.479 204.448C261.358 203.859 260.431 201.577 261.415 199.351C262.399 197.125 264.915 195.794 267.036 196.383C269.157 196.971 270.085 199.254 269.101 201.48Z" fill="#FEAD1F"></path>
  <path d="M303.969 191.704C303.082 186.535 297.662 185.51 293.355 184.607C286.862 183.244 280.483 181.413 274.079 179.687C270.619 178.76 267.151 177.857 263.651 177.082C260.223 176.324 256.416 175.622 252.9 175.921C252.706 175.937 252.609 176.252 252.819 176.324C258.142 178.107 263.876 178.905 269.32 180.3C275.006 181.76 280.644 183.43 286.338 184.849C289.032 185.518 291.734 186.099 294.452 186.64C296.702 187.091 299.307 187.591 301.017 189.253C303.436 191.608 302.452 195.181 301.243 197.866C300.057 200.496 298.799 203.076 297.734 205.762C296.597 208.641 295.516 211.561 294.589 214.521C293.621 217.594 292.879 221.231 290.613 223.659C290.314 223.981 290.774 224.506 291.129 224.239C293.29 222.651 293.976 220.102 294.927 217.707C296.121 214.682 297.194 211.617 298.339 208.569C299.508 205.44 300.831 202.399 302.267 199.383C303.404 196.987 304.428 194.39 303.969 191.696V191.704Z" fill="white"></path>
  <path d="M249.799 115.295C248.888 114.771 248.001 114.222 247.138 113.633C246.283 113.053 245.452 112.432 244.63 111.803C244.178 111.456 243.734 111.101 243.291 110.738C243.186 110.649 243 110.512 242.823 110.375C243.089 110.165 243.347 109.948 243.613 109.738C244.194 109.27 244.767 108.802 245.347 108.335C246.46 107.439 247.565 106.528 248.67 105.617C249.412 104.996 254.445 101.511 253.195 100.366C252.38 99.6241 250.8 100.923 250.13 101.358C248.888 102.165 247.718 103.084 246.517 103.947C245.315 104.81 244.121 105.697 242.936 106.584L241.008 108.012C240.468 108.407 239.863 108.786 239.549 109.399C238.782 110.891 239.992 111.996 241.008 112.924C242 113.827 243.033 114.69 244.121 115.488C245.234 116.311 246.388 117.077 247.565 117.803C248.711 118.513 250.041 119.489 251.38 119.747C252.961 120.053 253.88 118.037 252.719 116.98C251.913 116.255 250.751 115.835 249.807 115.295H249.799Z" fill="white"></path>
  <path d="M266.489 97.544C265.311 99.1571 264.69 101.351 264.005 103.222C263.247 105.295 262.48 107.359 261.746 109.44C261.069 111.384 260.424 113.344 259.9 115.336C259.383 117.304 258.762 119.554 258.867 121.603C258.94 122.941 260.827 122.982 261.134 121.748C261.642 119.723 261.795 117.618 262.335 115.586C262.851 113.65 263.48 111.747 264.15 109.86C264.811 107.997 265.497 106.142 266.182 104.278C266.868 102.407 267.868 100.278 268.005 98.286C268.062 97.5198 267.053 96.7537 266.481 97.544H266.489Z" fill="white"></path>
  <path d="M285.868 109.722C283.626 108.012 281.497 106.182 279.327 104.383C277.206 102.633 275.182 100.762 272.843 99.302C272.303 98.9714 271.811 99.7134 272.093 100.173C273.537 102.552 275.577 104.504 277.585 106.407C279.15 107.883 280.836 109.246 282.529 110.585C280.932 111.505 279.352 112.448 277.835 113.505C276.867 114.182 275.908 114.884 274.972 115.61C273.964 116.384 272.77 117.175 271.956 118.158C270.891 119.449 272.464 121.102 273.859 120.296C274.859 119.715 275.73 118.812 276.642 118.102C277.626 117.336 278.626 116.594 279.642 115.884C281.618 114.489 283.634 113.11 285.739 111.916C286.489 111.489 286.546 110.247 285.868 109.73V109.722Z" fill="white"></path>
  <path d="M127.541 130.539C126.355 130.539 126.484 132.37 127.662 132.37C128.839 132.37 128.719 130.539 127.541 130.539Z" fill="white"></path>
  <path d="M81.9964 240.168C81.4076 240.168 81.4641 241.087 82.0529 241.087C82.6416 241.087 82.5851 240.168 81.9964 240.168Z" fill="white"></path>
  <path d="M79.3592 233.458C78.9963 233.458 79.0366 234.015 79.3915 234.015C79.7463 234.015 79.7141 233.458 79.3592 233.458Z" fill="white"></path>
  <path d="M229.009 115.843C228.864 115.424 228.622 115.069 228.291 114.771C228.114 114.658 227.936 114.545 227.767 114.424C227.388 114.238 226.985 114.166 226.557 114.19C226.226 114.198 225.92 114.287 225.646 114.456C225.339 114.577 225.081 114.771 224.872 115.029C224.654 115.271 224.501 115.537 224.428 115.851C224.307 116.142 224.259 116.448 224.291 116.763C224.331 116.973 224.372 117.174 224.412 117.384C224.557 117.803 224.799 118.158 225.13 118.457C225.307 118.569 225.477 118.682 225.654 118.803C226.033 118.989 226.436 119.061 226.864 119.037C227.194 119.037 227.493 118.94 227.775 118.771C228.082 118.65 228.34 118.457 228.558 118.198C228.775 117.957 228.92 117.682 229.001 117.376C229.122 117.085 229.17 116.779 229.138 116.464C229.098 116.263 229.057 116.053 229.017 115.843H229.009Z" fill="white"></path>
  <path d="M219.241 111.141C218.33 111.141 218.427 112.544 219.33 112.544C220.233 112.544 220.145 111.141 219.241 111.141Z" fill="white"></path>
  <path d="M301.902 100.375C301.781 100.02 301.474 99.7539 301.111 99.6813C300.74 99.6087 300.361 99.7458 300.111 100.028C299.869 100.302 299.797 100.698 299.909 101.044C299.974 101.23 300.079 101.383 300.224 101.504C300.361 101.625 300.522 101.698 300.708 101.738C301.41 101.649 301.587 101.528 301.708 101.391C301.95 101.117 302.022 100.722 301.91 100.375H301.902Z" fill="white"></path>
  <path d="M294 122.595C293.516 122.595 293.564 123.345 294.048 123.345C294.532 123.345 294.484 122.595 294 122.595Z" fill="white"></path>
  <path d="M353.278 131.441C351.205 131.441 351.423 134.651 353.479 134.651C355.536 134.651 355.334 131.441 353.278 131.441Z" fill="white"></path>
  <path d="M337.439 141.377C336.576 141.377 336.664 142.716 337.527 142.716C338.39 142.716 338.302 141.377 337.439 141.377Z" fill="white"></path>
  <path d="M333.624 119.126C330.705 119.126 331.011 123.642 333.915 123.642C336.818 123.642 336.528 119.126 333.624 119.126Z" fill="white"></path>
  <path d="M226.259 93.5114C224.355 92.9629 224.251 93.0759 224.186 93.2049C224.178 94.455 224.267 94.576 224.388 94.6808C225.888 94.6808 225.993 94.5679 226.065 94.4389C226.251 94.0437 226.267 93.8985 226.259 93.7533C226.267 93.592 226.275 93.5517 226.267 93.5194L226.259 93.5114Z" fill="white"></path>
  <path d="M244.074 89.4936C243.792 89.1629 243.615 89.1307 243.445 89.1791C243.978 90.1388 244.01 89.9937 244.05 89.8566C244.099 89.6549 244.099 89.5662 244.066 89.4856L244.074 89.4936Z" fill="white"></path>
  <path d="M180.586 103.117C180.271 103.117 180.303 103.609 180.618 103.609C180.932 103.609 180.9 103.117 180.586 103.117Z" fill="white"></path>
  <path d="M122.024 278.479C121.71 279.632 122.064 279.511 122.153 279.148C122.234 278.793 122.153 278.591 122.024 278.479Z" fill="white"></path>
  <path d="M135.527 278.396C135.019 278.396 135.075 279.179 135.575 279.179C136.075 279.179 136.027 278.396 135.527 278.396Z" fill="white"></path>
  <path d="M103.199 282.647C102.715 282.647 102.764 283.398 103.247 283.398C103.731 283.398 103.683 282.647 103.199 282.647Z" fill="white"></path>
  <path d="M177.594 86.1628C177.433 85.8725 177.336 85.7918 177.215 85.7354C177.416 86.9371 177.497 86.8403 177.562 86.7193C177.642 86.4128 177.634 86.2838 177.594 86.1628Z" fill="white"></path>
</svg>
